<?xml version="1.0" encoding="utf-8"?>
<!-- Generator: Adobe Illustrator 23.1.0, SVG Export Plug-In . SVG Version: 6.00 Build 0)  -->
<svg version="1.1" xmlns="http://www.w3.org/2000/svg" xmlns:xlink="http://www.w3.org/1999/xlink" x="0px" y="0px"
	 viewBox="0 0 1020.4 168.9" style="enable-background:new 0 0 1020.4 168.9;" xml:space="preserve">
<style type="text/css">
	.st0{display:none;}
	.st1{display:inline;fill:none;stroke:#E6007E;stroke-width:0.3;stroke-miterlimit:10;stroke-dasharray:5,3;}
	.st2{display:inline;}
	.st3{fill:none;stroke:#878787;stroke-width:0.75;stroke-miterlimit:10;}
	.st4{fill:none;stroke:#878787;stroke-width:0.75;stroke-miterlimit:10;stroke-dasharray:4.9825,2.9895;}
	.st5{fill:none;stroke:#878787;stroke-width:0.75;stroke-miterlimit:10;stroke-dasharray:5.0265,3.0159;}
	.st6{display:inline;fill:none;stroke:#878787;stroke-width:0.75;stroke-miterlimit:10;stroke-dasharray:5,3;}
	.st7{fill:none;stroke:#878787;stroke-width:0.75;stroke-miterlimit:10;stroke-dasharray:4.9945,2.9967;}
	.st8{fill:none;stroke:#878787;stroke-width:0.75;stroke-miterlimit:10;stroke-dasharray:5.0688,3.0412;}
	.st9{display:inline;fill:none;stroke:#3C3C3B;stroke-width:0.75;stroke-miterlimit:10;}
	.st10{fill:none;stroke:#3C3C3B;stroke-width:0.75;stroke-miterlimit:10;}
	.st11{fill:#009E83;}
</style>
<g id="Construction_grid" class="st0">
	<path class="st1" d="M39.6-347.5l-9.9-9.9c-3.4-3.4-3.4-8.8,0-12.2l9.9-9.9l9.9,9.9c3.4,3.4,3.4,8.8,0,12.2L39.6-347.5z"/>
	<path class="st1" d="M-16.3-335.1l-14.8-14.8c-5.1-5.1-5.1-13.3,0-18.3l14.8-14.8l14.8,14.8c5.1,5.1,5.1,13.3,0,18.3L-16.3-335.1z"
		/>
	<g class="st2">
		<g>
			<polyline class="st3" points="1020.4,166.4 1020.4,168.9 1017.9,168.9 			"/>
			<line class="st4" x1="1015" y1="168.9" x2="4" y2="168.9"/>
			<polyline class="st3" points="2.5,168.9 0,168.9 0,166.4 			"/>
			<line class="st5" x1="0" y1="163.3" x2="0" y2="4"/>
			<polyline class="st3" points="0,2.5 0,0 2.5,0 			"/>
			<line class="st4" x1="5.5" y1="0" x2="1016.4" y2="0"/>
			<polyline class="st3" points="1017.9,0 1020.4,0 1020.4,2.5 			"/>
			<line class="st5" x1="1020.4" y1="5.5" x2="1020.4" y2="164.9"/>
		</g>
	</g>
	<line class="st6" x1="7" y1="136.9" x2="1018.9" y2="136.9"/>
	<line class="st6" x1="7" y1="46" x2="1018.9" y2="46"/>
	<line class="st6" x1="855" y1="0" x2="855" y2="206"/>
	<line class="st6" x1="879.8" y1="0" x2="879.8" y2="206"/>
	<path class="st6" d="M867.4,108.3l-9.9-9.9c-3.4-3.4-3.4-8.8,0-12.2l9.9-9.9l9.9,9.9c3.4,3.4,3.4,8.8,0,12.2L867.4,108.3z"/>
	<path class="st6" d="M-18.6,116.3l-14.8-14.8c-5.1-5.1-5.1-13.3,0-18.3l14.8-14.8l14.8,14.8c5.1,5.1,5.1,13.3,0,18.3L-18.6,116.3z"
		/>
	<path class="st6" d="M1039,116.3l-14.8-14.8c-5.1-5.1-5.1-13.3,0-18.3l14.8-14.8l14.8,14.8c5.1,5.1,5.1,13.3,0,18.3L1039,116.3z"/>
	<path class="st6" d="M475-18.6l14.8-14.8c5.1-5.1,13.3-5.1,18.3,0l14.8,14.8L508.1-3.8c-5.1,5.1-13.3,5.1-18.3,0L475-18.6z"/>
	<path class="st6" d="M475,92.4l14.8-14.8c5.1-5.1,13.3-5.1,18.3,0l14.8,14.8l-14.8,14.8c-5.1,5.1-13.3,5.1-18.3,0L475,92.4z"/>
	<path class="st6" d="M475,187.5l14.8-14.8c5.1-5.1,13.3-5.1,18.3,0l14.8,14.8l-14.8,14.8c-5.1,5.1-13.3,5.1-18.3,0L475,187.5z"/>
	<g class="st2">
		<g>
			<polyline class="st3" points="1057.6,203.5 1057.6,206 1055.1,206 			"/>
			<line class="st7" x1="1052.1" y1="206" x2="-33.2" y2="206"/>
			<polyline class="st3" points="-34.7,206 -37.2,206 -37.2,203.5 			"/>
			<line class="st8" x1="-37.2" y1="200.5" x2="-37.2" y2="-33.2"/>
			<polyline class="st3" points="-37.2,-34.7 -37.2,-37.2 -34.7,-37.2 			"/>
			<line class="st7" x1="-31.7" y1="-37.2" x2="1053.6" y2="-37.2"/>
			<polyline class="st3" points="1055.1,-37.2 1057.6,-37.2 1057.6,-34.7 			"/>
			<line class="st8" x1="1057.6" y1="-31.6" x2="1057.6" y2="202"/>
		</g>
	</g>
	<polyline class="st9" points="879.8,210.5 879.8,219.3 855,219.3 855,210.5 	"/>
	
		<text transform="matrix(1 0 0 1 864.5852 230.6089)" style="display:inline;fill:#3C3C3B; font-family:'MyriadPro-Regular'; font-size:12px;">x</text>
	<g class="st2">
		<polyline class="st10" points="1020.4,68.4 1072.2,68.4 1072.2,116.3 1020.4,116.3 		"/>
		<text transform="matrix(1 0 0 1 1077.7223 95.8823)" style="fill:#3C3C3B; font-family:'MyriadPro-Regular'; font-size:12px;">1.5x</text>
	</g>
</g>
<g id="Logo">
	<g>
		<g>
			<path class="st11" d="M52.1,90c3.7-1.7,6.6-4.3,8.7-7.7c2-3.4,3.1-7.6,3.1-12.3c0-5.5-1.3-11.4-5.5-16S46.9,46,35,46H17.5H0v45.4
				v45.4h17.4h17.4c10.5,0,18.7-2.3,24.3-6.8c5.5-4.4,8.4-11,8.4-19.4c0-5.2-1.4-9.7-4.1-13.2C60.7,94,56.9,91.4,52.1,90z
				 M33.5,84.5h-8.3h-8.3V72.5V60.6h7.9h7.9c4.9,0,8.4,0.9,10.8,2.9c2.3,2,3.5,4.9,3.5,9c0,4-1.1,7-3.4,9
				C41.3,83.5,37.9,84.5,33.5,84.5z M35.7,122.3h-9.5h-9.5v-11.9V98.5h9.4h9.4c5,0,8.7,0.9,11.2,2.8c2.5,1.8,3.7,4.6,3.7,8.4
				c0,4.3-1.2,7.5-3.6,9.6C44.3,121.3,40.7,122.3,35.7,122.3z"/>
			<path class="st11" d="M105,46L88.4,91.5l-16.6,45.4h4.8h4.8c2.4,0,4.7-0.8,6.6-2.1c1.9-1.3,3.3-3.2,4.1-5.5l2.8-8.2l2.8-8.2h16.8
				h16.8l2.9,8.2l2.9,8.2c0.8,2.3,2.3,4.2,4.1,5.5s4.1,2.1,6.5,2.1h5h5l-16.4-45.4L125.2,46h-10.1H105z M126.4,98.5h-11.8h-11.8
				l3.1-8.9l3.1-8.9c1.3-3.9,2.5-7.4,3.4-10.5c0.9-3.1,1.7-5.7,2.2-7.7c0.5,2.1,1.3,4.7,2.2,7.8c0.9,3.1,2.1,6.6,3.5,10.5l3,8.8
				L126.4,98.5z"/>
			<polygon class="st11" points="168.2,136.9 176.6,136.9 185,136.9 185,91.5 185,46 176.6,46 168.2,46 168.2,91.5 			"/>
			<path class="st11" d="M232.3,46h-14.4h-14.4v45.4v45.4h14.2h14.2c14.1,0,25.2-4.2,32.7-12.1c7.6-7.9,11.6-19.5,11.6-34.3
				c0-14.3-3.9-25.5-11.3-33C257.4,50,246.5,46,232.3,46z M220.3,60.6h5.8h5.8c8.9,0,15.6,2.6,20,7.7c4.5,5.1,6.7,12.7,6.7,22.8
				c0,10.2-2.4,18-7.2,23.3c-4.7,5.3-11.7,8-20.9,8h-5.1h-5.1V91.5V60.6z"/>
			<path class="st11" d="M343,103.3c0,7-1.5,12.3-4.6,15.8c-3.1,3.5-7.7,5.2-13.8,5.2c-6.2,0-10.9-1.7-14-5.3
				c-3.1-3.5-4.6-8.8-4.6-16V80.2V57.4c0-3.1-1.3-6-3.3-8s-4.9-3.3-8-3.3h-2.7h-2.7v30.3v30.3c0,10.1,3.3,18.1,9.4,23.6
				c6.1,5.5,14.9,8.5,26,8.5c11.1,0,19.9-3,26-8.5c6.1-5.5,9.4-13.5,9.4-23.6V76.3V46h-2.8h-2.8c-3.1,0-6,1.3-8,3.3
				c-2.1,2.1-3.3,4.9-3.3,8v23V103.3z"/>
			<path class="st11" d="M426.3,136.9h9.7h9.7l-1.2-1.3l-1.2-1.3c-1-1.1-1.8-2.4-2.5-3.8c-0.7-1.4-1.3-3-1.8-4.8l-2.2-8.6l-2.2-8.6
				c-0.9-3.6-2.1-6.4-3.8-8.7c-1.7-2.2-3.8-3.8-6.4-4.9c4.7-1.4,8.6-4.2,11.2-8c2.6-3.8,4.1-8.6,4.1-14.2c0-8.8-2.7-15.5-7.9-19.9
				c-5.3-4.4-13.1-6.7-23.6-6.7h-16h-16v45.4v45.4h8.4h8.4v-17.8v-17.8h5.1h5.1c4.1,0,7.3,0.4,9.7,2c2.4,1.6,4.1,4.3,5.2,9l1.8,7.6
				l1.8,7.6c0,0,0.4,1.5,1.2,3.5C423.6,132.9,424.8,135.3,426.3,136.9z M393,60.6h7.3h7.3c4.8,0,8.5,1.1,10.9,3.3
				c2.4,2.2,3.6,5.4,3.6,9.8c0,4.5-1.1,7.8-3.5,9.9c-2.4,2.1-6.1,3.1-11.1,3.1h-7.3H393v-13V60.6z"/>
			<polygon class="st11" points="458.1,136.9 466.6,136.9 475,136.9 475,91.5 475,46 466.6,46 458.1,46 458.1,91.5 			"/>
		</g>
		<g>
			<g>
				<path class="st11" d="M937,108.3c-0.9-0.3-1.9-0.7-2.8-1.1c-1-0.4-1.9-0.9-2.9-1.3c-1-0.5-2-1-3-1.6c-1-0.6-2-1.2-3-1.9
					c0,0-2.1-1.3-5-3.7c-2.9-2.4-6.5-6-9.5-10.7c-3-4.7-5.4-10.5-5.9-17.4c-0.5-6.8,1-14.7,5.8-23.5c1.6-2.9,3.5-5.7,5.7-8.1
					c2.2-2.5,4.6-4.6,7.3-6.5c2.7-1.9,5.5-3.4,8.6-4.6c3-1.2,6.3-2,9.6-2.3c0.1,0,0.3,0,0.4,0c0.1,0,0.3,0,0.4,0c0.1,0,0.3,0,0.4,0
					c0.1,0,0.3,0,0.4,0l-8.1-6.3l-8.1-6.3l-8.1-6.3L911.1,0c0,0-2.6,1.3-6.4,3.9c-3.8,2.6-8.6,6.6-13,11.9
					c-4.4,5.3-8.4,12-10.5,20.1c-2.1,8.1-2.2,17.6,1.2,28.5c1.9,6,4.6,11.6,8,16.6c3.4,5,7.6,9.5,12.2,13.3
					c4.7,3.8,9.9,6.9,15.5,9.3c5.6,2.3,11.6,3.9,17.9,4.5c0.1,0,0.1,0,0.2,0c0.1,0,0.1,0,0.2,0c0.1,0,0.1,0,0.2,0
					C936.8,108.3,936.9,108.3,937,108.3z"/>
				<path class="st11" d="M910.1,110.3c1.1,1.2,2.3,2.4,3.5,3.5c1.2,1.1,2.5,2.1,3.8,3s2.7,1.8,4,2.6c1.4,0.8,2.7,1.5,4.1,2.1
					c3.5,1.7,7.1,3,10.8,4c3.7,1,7.5,1.7,11.3,2.1c3.8,0.4,7.6,0.4,11.5,0.1c3.8-0.3,7.6-1,11.4-1.9c8.9-2.3,16.3-6.2,22.5-10.7
					c6.2-4.5,11.1-9.6,14.9-14.5c3.8-4.8,6.5-9.4,8.3-12.7c1.8-3.3,2.6-5.5,2.6-5.5c0.1-0.1,0.3-0.7,0.7-1.7c0.3-1,0.7-2.3,0.9-4
					s0.3-3.6,0.1-5.8c-0.2-2.2-0.8-4.6-1.9-7.1c-1.1-2.6-2.7-5.1-4.7-7.5c-2-2.4-4.4-4.7-7.3-6.9c-2.9-2.2-6.2-4.3-9.8-6.3
					c-3.7-2-7.8-3.8-12.3-5.5c1.1,2.5,2.3,5.7,3.2,9.3c0.9,3.6,1.5,7.8,1.5,12.4c0,4.6-0.5,9.6-1.9,15c-1.4,5.4-3.7,11.2-7.1,17.2
					c0,0-1.1,2.2-3.5,5.2c-2.4,3-6.2,6.9-11.6,10.3c-5.4,3.4-12.5,6.2-21.5,7.3C934.3,115.2,923.3,114.4,910.1,110.3z"/>
			</g>
			<path class="st11" d="M951,168.9l-2.5-2.5l-2.5-2.5l-2.5-2.5l-2.5-2.5c-0.8-0.8-1.5-1.8-1.9-2.9c-0.4-1-0.6-2.1-0.6-3.3
				s0.2-2.2,0.6-3.3c0.4-1,1.1-2,1.9-2.9l2.5-2.5l2.5-2.5l2.5-2.5l2.5-2.5l2.5,2.5l2.5,2.5l2.5,2.5l2.5,2.5c0.8,0.8,1.5,1.8,1.9,2.9
				c0.4,1,0.6,2.1,0.6,3.3s-0.2,2.2-0.6,3.3s-1.1,2-1.9,2.9l-2.5,2.5l-2.5,2.5l-2.5,2.5L951,168.9z"/>
		</g>
		<g>
			<path class="st11" d="M574.9,90c3.7-1.7,6.6-4.3,8.7-7.7c2-3.4,3.1-7.6,3.1-12.3c0-5.5-1.3-11.4-5.5-16S569.8,46,557.9,46h-17.5
				h-17.5v45.4v45.4h17.4h17.4c10.5,0,18.7-2.3,24.3-6.8c5.5-4.4,8.4-11,8.4-19.4c0-5.2-1.4-9.7-4.1-13.2
				C583.6,94,579.7,91.4,574.9,90z M556.4,84.5h-8.3h-8.3V72.5V60.6h7.9h7.9c4.9,0,8.4,0.9,10.8,2.9c2.3,2,3.5,4.9,3.5,9
				c0,4-1.1,7-3.4,9C564.2,83.5,560.8,84.5,556.4,84.5z M558.6,122.3h-9.5h-9.5v-11.9V98.5h9.4h9.4c5,0,8.7,0.9,11.2,2.8
				c2.5,1.8,3.7,4.6,3.7,8.4c0,4.3-1.2,7.5-3.6,9.6C567.2,121.3,563.6,122.3,558.6,122.3z"/>
			<path class="st11" d="M627.9,46l-16.6,45.4l-16.6,45.4h4.8h4.8c2.4,0,4.7-0.8,6.6-2.1c1.9-1.3,3.3-3.2,4.1-5.5l2.8-8.2l2.8-8.2
				h16.8h16.8l2.9,8.2l2.9,8.2c0.8,2.3,2.3,4.2,4.1,5.5c1.9,1.3,4.1,2.1,6.5,2.1h5h5l-16.4-45.4L648.1,46H638H627.9z M649.3,98.5
				h-11.8h-11.8l3.1-8.9l3.1-8.9c1.3-3.9,2.5-7.4,3.4-10.5c0.9-3.1,1.7-5.7,2.2-7.7c0.5,2.1,1.3,4.7,2.2,7.8s2.1,6.6,3.5,10.5l3,8.8
				L649.3,98.5z"/>
			<path class="st11" d="M749.5,94.1c0,2.9,0.1,5.6,0.1,8.1c0.1,2.5,0.2,4.8,0.3,6.7c-0.9-1.7-2.1-3.6-3.3-5.7
				c-1.3-2.1-2.6-4.2-4-6.3l-17.3-25.1l-17.3-25.1l-0.2-0.3l-0.2-0.3h-8.2H691v45.4v45.4h8.4h8.4v-24V89c0-2.9-0.1-5.6-0.1-8.1
				c-0.1-2.5-0.2-4.8-0.3-6.7c0.9,1.7,2.1,3.6,3.3,5.7c1.3,2.1,2.7,4.2,4.1,6.3l17.7,25.4l17.7,25.4h8h8V91.5V46h-8.4h-8.4v24V94.1z
				"/>
			<g>
				<path class="st11" d="M820.7,90.2l13.4-18.7l13.4-18.7c0,0,0.5-0.6,1.2-1.3c0.7-0.8,1.6-1.7,2.5-2.5c0.9-0.8,1.5-1.3,2.1-1.7
					c0.6-0.4,1.1-0.7,1.7-1.2h-11.3h-11.3l-12.8,18.6l-12.8,18.6h-2.5h-2.5V64.6V46h-8.4h-8.4v45.4v45.4h8.4h8.4v-19.3V98.3h2.2h2.2
					h0h0c4.1,0,7,1.2,9.4,3.5c2.4,2.3,4.3,5.8,6.4,10.5l3.7,7.6l3.7,7.6c0,0,0.7,1.5,1.9,3.5c1.2,2,2.9,4.3,4.8,5.9h9.1h9.1
					l-1.5-1.3l-1.5-1.3c-1.2-1.1-2.3-2.4-3.3-3.8c-1-1.4-1.9-3-2.9-4.8l-4-8.6l-4-8.6c-1.7-3.6-4.4-7.6-7.4-11
					S823.5,91.3,820.7,90.2L820.7,90.2L820.7,90.2z"/>
			</g>
		</g>
	</g>
</g>
</svg>
